# xmcd CD database file
#
# Track frame offsets:
#	150
#	24231
#	42425
#	65382
#	87684
#	102127
#	121365
#	132703
#	145992
#	162982
#
# Disc length: 2559 seconds
#
# Revision: 2
# Processed by: cddbd v1.5.2PL0 Copyright (c) Steve Scherf et al.
# Submitted via: CDex 1.81
#
DISCID=8e09fd0a
DTITLE=Nobuo Hara and Sharps and Flats - Oliver Nelson In Tokyo
DYEAR=1970
DGENRE=Jazz
TTITLE0=Round Midnight
TTITLE1=The Shadow of Your Smile
TTITLE2=Yesterday
TTITLE3=My Funny Valentine
TTITLE4=Scarborough Fair - Canticle
TTITLE5=Summertime
TTITLE6=Charade
TTITLE7=Autumn Leaves
TTITLE8=How Insensitive
TTITLE9=Sermonette
EXTD=YEAR: 1970
EXTT0=
EXTT1=
EXTT2=
EXTT3=
EXTT4=
EXTT5=
EXTT6=
EXTT7=
EXTT8=
EXTT9=
PLAYORDER=
